<?xml version="1.0" encoding="utf-8"?>
<!-- Generator: Adobe Illustrator 16.0.0, SVG Export Plug-In . SVG Version: 6.00 Build 0)  -->
<!DOCTYPE svg PUBLIC "-//W3C//DTD SVG 1.1//EN" "http://www.w3.org/Graphics/SVG/1.1/DTD/svg11.dtd">
<svg version="1.1" id="Layer_1" xmlns="http://www.w3.org/2000/svg" xmlns:xlink="http://www.w3.org/1999/xlink" x="0px" y="0px"
	 width="410.72px" height="108.557px" viewBox="0 0 410.72 108.557" enable-background="new 0 0 410.72 108.557"
	 xml:space="preserve">
<g>
	<path fill="#38A4DD" d="M115.182,81.159L115.182,81.159c-14.836,0-26.181-12.218-26.181-26.762
		c0-14.545,11.345-26.762,26.181-26.762l0,0V1.745l0,0c-28.944,0-51.779,24.144-51.779,52.652c0,28.507,22.835,52.651,51.779,52.651
		l0,0V81.159z"/>
	<path fill="#FCD423" d="M115.182,1.745v25.89c14.835,0,26.18,12.217,26.18,26.762c0,14.544-11.345,26.762-26.18,26.762v25.889
		c28.943,0,51.778-24.144,51.778-52.651C166.96,25.889,144.125,1.745,115.182,1.745z"/>
	<path fill="#9B51A0" d="M358.338,64.729v27.78c0,4.492-0.53,7.797-1.59,9.916c-0.858,1.717-2.259,3.13-4.201,4.239
		c-1.943,1.109-3.974,1.666-6.094,1.666c-2.119,0-4.139-0.557-6.056-1.666c-1.918-1.109-3.33-2.522-4.238-4.239
		c-1.061-2.119-1.59-5.424-1.59-9.916V20.673c0-3.179,0.101-5.424,0.303-6.736c0.605-3.28,2.271-5.954,4.996-8.024
		c2.22-1.614,5.247-2.422,9.083-2.422h2.877h21.043c10.547,0,19.05,2.676,25.51,8.023c7.165,5.955,10.749,13.954,10.749,23.996
		c0,8.78-2.676,15.745-8.023,20.893c-2.928,2.826-6.334,4.819-10.22,5.979c-1.716,0.505-3.709,1.01-5.979,1.514l20.135,22.255
		c3.785,4.189,5.678,7.747,5.678,10.674c0,3.583-1.389,6.561-4.163,8.932c-2.171,1.866-4.72,2.801-7.646,2.801
		c-2.827,0-5.426-1.086-7.797-3.255c-0.757-0.655-1.994-2.044-3.709-4.163L358.338,64.729z M358.338,48.227h14.761
		c3.937,0,7.064-1.16,9.386-3.481c2.271-2.271,3.407-4.971,3.407-8.1c0-3.835-1.489-6.989-4.467-9.462
		c-2.422-2.019-5.374-3.028-8.856-3.028h-14.23V48.227z"/>
	<path fill="#E63A34" d="M62.396,27.925H51.779c-14.253,0-25.308,8.582-25.308,26.472c0,17.89,11.054,26.471,25.308,26.471h10.618
		v24.435H47.125C19.781,105.303,0,82.323,0,54.397S19.781,3.491,47.125,3.491h15.272V27.925z"/>
	<path fill="#66BC6A" d="M225.937,105.303h-19.345c-24.58,0-36.216-9.309-36.216-32.871V3.491h25.308v66.614
		c0,8.291,2.764,10.763,12.944,10.763h17.309V105.303z"/>
	<circle fill="#C52929" cx="63.402" cy="15.703" r="12.212"/>
	<circle fill="#B72025" cx="62.396" cy="93.09" r="12.212"/>
	<circle fill="#378F43" cx="224.04" cy="93.09" r="12.212"/>
	<circle fill="#43A047" cx="115.182" cy="14.645" r="12.899"/>
	<circle fill="#307D3D" cx="116.557" cy="94.148" r="12.899"/>
	<path fill="#38A4DD" d="M275.819,79.414L275.819,79.414c-14.836,0-26.181-12.218-26.181-26.762
		c0-14.545,11.345-26.762,26.181-26.762l0,0V0l0,0c-28.944,0-51.779,24.144-51.779,52.652c0,28.507,22.835,52.651,51.779,52.651l0,0
		V79.414z"/>
	<path fill="#F8981D" d="M275.819,0v25.89c14.835,0,26.18,12.217,26.18,26.762c0,14.544-11.345,26.762-26.18,26.762v25.889
		c28.943,0,51.778-24.144,51.778-52.651C327.598,24.144,304.763,0,275.819,0z"/>
	<circle fill="#7A5649" cx="275.819" cy="12.899" r="12.899"/>
	<circle fill="#7A5649" cx="277.194" cy="92.403" r="12.899"/>
	<circle fill="#783293" cx="346.781" cy="96.344" r="12.212"/>
	<circle fill="#4B2D87" cx="398.508" cy="96.344" r="12.212"/>
	<circle fill="#783293" cx="346.781" cy="15.703" r="12.212"/>
</g>
</svg>
