<?xml version="1.0" encoding="iso-8859-1"?>
<!-- Generator: Adobe Illustrator 19.0.0, SVG Export Plug-In . SVG Version: 6.00 Build 0)  -->
<svg version="1.1" id="Layer_1" xmlns="http://www.w3.org/2000/svg" xmlns:xlink="http://www.w3.org/1999/xlink" x="0px" y="0px"
	 viewBox="0 0 496.157 496.157" style="enable-background:new 0 0 496.157 496.157;" xml:space="preserve">
<path style="fill:#FFEEAD;" d="M248.074,0C111.07,0,0,111.062,0,248.082c0,137.005,111.07,248.075,248.074,248.075
	c137.014,0,248.082-111.07,248.082-248.075C496.156,111.062,385.088,0,248.074,0z"/>
<path style="fill:#DB2A2A;" d="M308.545,134.996c-26.877,0-51.84,13.098-66.852,35.051l-3.098,3.939l-2.066-2.635
	c-14.832-22.771-39.85-36.355-67-36.355c-46.332,0-79.957,33.624-79.957,79.947c0,68.4,123.816,169.199,132.842,176.457
	c4.271,4.072,9.848,6.31,15.764,6.31c5.92,0,11.496-2.237,15.768-6.319c9.055-7.302,134.547-109.699,134.547-176.447
	C388.492,168.621,354.869,134.996,308.545,134.996z"/>
<path style="fill:#D61E1E;" d="M236.529,171.352c-14.832-22.771-39.85-36.355-67-36.355c-46.332,0-79.957,33.624-79.957,79.947
	c0,68.4,123.816,169.199,132.842,176.457c4.271,4.072,9.848,6.31,15.764,6.31l0.418-223.724L236.529,171.352z"/>
<path style="fill:#D63636;" d="M138.706,152.672c-25.73,10.208-36.58,37.972-34.531,64.182c1.156,14.725,24.291,15.321,23.115,0.454
	c-0.92-11.841-0.1-24.575,7.82-34.14c2.363-2.854,4.904-5.08,7.475-6.748c1.33-0.86,7.492-3.578,1.83-1.333
	C158.064,169.676,152.563,147.178,138.706,152.672z"/>
<g>
</g>
<g>
</g>
<g>
</g>
<g>
</g>
<g>
</g>
<g>
</g>
<g>
</g>
<g>
</g>
<g>
</g>
<g>
</g>
<g>
</g>
<g>
</g>
<g>
</g>
<g>
</g>
<g>
</g>
</svg>
