<?xml version="1.0" encoding="utf-8"?>
<!-- Generator: Adobe Illustrator 16.0.0, SVG Export Plug-In . SVG Version: 6.00 Build 0)  -->
<!DOCTYPE svg PUBLIC "-//W3C//DTD SVG 1.1//EN" "http://www.w3.org/Graphics/SVG/1.1/DTD/svg11.dtd">
<svg version="1.1" id="Layer_1" xmlns="http://www.w3.org/2000/svg" xmlns:xlink="http://www.w3.org/1999/xlink" x="0px" y="0px"
	 width="300px" height="300px" viewBox="0 0 300 300" enable-background="new 0 0 300 300" xml:space="preserve">
<circle fill="#010101" cx="145" cy="37" r="24"/>
<circle fill="#010101" cx="145" cy="93" r="19"/>
<circle fill="#010101" cx="145" cy="150" r="14.302"/>
<circle fill="#010101" cx="145" cy="206" r="19"/>
<circle fill="#010101" cx="145" cy="262" r="24"/>
<circle fill="#010101" cx="88" cy="65" r="19"/>
<circle fill="#010101" cx="88" cy="121" r="14"/>
<circle fill="#010101" cx="88" cy="178" r="14"/>
<circle fill="#010101" cx="88" cy="234" r="19"/>
<circle fill="#010101" cx="32" cy="93" r="14"/>
<circle fill="#010101" cx="32" cy="150" r="9"/>
<circle fill="#010101" cx="32" cy="206" r="14"/>
<circle fill="#010101" cx="201" cy="65" r="24"/>
<circle fill="#010101" cx="201" cy="121" r="19"/>
<circle fill="#010101" cx="201" cy="178" r="19"/>
<circle fill="#010101" cx="201" cy="234" r="24"/>
<circle fill="#010101" cx="257" cy="93" r="24"/>
<circle fill="#010101" cx="257" cy="150" r="24"/>
<circle fill="#010101" cx="257" cy="206" r="24"/>
</svg>
